<svg width="21" height="21" viewBox="0 0 21 21" fill="none" xmlns="http://www.w3.org/2000/svg">
<path d="M14.5434 0.506287C17.8985 0.506287 20.1451 2.8618 20.1451 6.36537V14.4523C20.1451 17.945 17.8985 20.3005 14.5434 20.3005H5.9626C2.60749 20.3005 0.350952 17.945 0.350952 14.4523V6.36537C0.350952 2.8618 2.60749 0.506287 5.9626 0.506287H14.5434ZM14.385 7.43425C14.0485 7.09775 13.4943 7.09775 13.1578 7.43425L9.07029 11.5218L7.3383 9.78976C7.0018 9.45326 6.44756 9.45326 6.11106 9.78976C5.77456 10.1263 5.77456 10.6706 6.11106 11.017L8.46657 13.3626C8.63482 13.5309 8.85256 13.61 9.07029 13.61C9.29793 13.61 9.51566 13.5309 9.68391 13.3626L14.385 8.66149C14.7215 8.32499 14.7215 7.78065 14.385 7.43425Z" fill="white"/>
</svg>
