<svg width="21" height="21" viewBox="0 0 21 21" fill="none" xmlns="http://www.w3.org/2000/svg">
<path d="M14.7377 0.903748C18.0928 0.903748 20.3395 3.25926 20.3395 6.76283V14.8497C20.3395 18.3424 18.0928 20.6979 14.7377 20.6979H6.15694C2.80183 20.6979 0.545288 18.3424 0.545288 14.8497V6.76283C0.545288 3.25926 2.80183 0.903748 6.15694 0.903748H14.7377ZM14.5794 7.83171C14.2429 7.49521 13.6886 7.49521 13.3521 7.83171L9.26463 11.9192L7.53264 10.1872C7.19614 9.85072 6.6419 9.85072 6.3054 10.1872C5.9689 10.5237 5.9689 11.0681 6.3054 11.4145L8.66091 13.7601C8.82916 13.9283 9.04689 14.0075 9.26463 14.0075C9.49226 14.0075 9.71 13.9283 9.87825 13.7601L14.5794 9.05895C14.9159 8.72245 14.9159 8.17811 14.5794 7.83171Z" fill="white"/>
</svg>
