<svg width="21" height="21" viewBox="0 0 21 21" fill="none" xmlns="http://www.w3.org/2000/svg">
<path d="M14.5434 0.807556C17.8985 0.807556 20.1451 3.16306 20.1451 6.66664V14.7536C20.1451 18.2462 17.8985 20.6017 14.5434 20.6017H5.9626C2.60749 20.6017 0.350952 18.2462 0.350952 14.7536V6.66664C0.350952 3.16306 2.60749 0.807556 5.9626 0.807556H14.5434ZM14.385 7.73552C14.0485 7.39902 13.4943 7.39902 13.1578 7.73552L9.07029 11.823L7.3383 10.091C7.0018 9.75453 6.44756 9.75453 6.11106 10.091C5.77456 10.4275 5.77456 10.9719 6.11106 11.3183L8.46657 13.6639C8.63482 13.8321 8.85256 13.9113 9.07029 13.9113C9.29793 13.9113 9.51566 13.8321 9.68391 13.6639L14.385 8.96276C14.7215 8.62626 14.7215 8.08192 14.385 7.73552Z" fill="white"/>
</svg>
