<svg width="21" height="21" viewBox="0 0 21 21" fill="none" xmlns="http://www.w3.org/2000/svg">
<path d="M15.1406 0.807556C18.4957 0.807556 20.7423 3.16306 20.7423 6.66664V14.7536C20.7423 18.2462 18.4957 20.6017 15.1406 20.6017H6.55977C3.20466 20.6017 0.94812 18.2462 0.94812 14.7536V6.66664C0.94812 3.16306 3.20466 0.807556 6.55977 0.807556H15.1406ZM14.9822 7.73552C14.6457 7.39902 14.0915 7.39902 13.755 7.73552L9.66746 11.823L7.93547 10.091C7.59897 9.75453 7.04473 9.75453 6.70823 10.091C6.37173 10.4275 6.37173 10.9719 6.70823 11.3183L9.06374 13.6639C9.23199 13.8321 9.44973 13.9113 9.66746 13.9113C9.89509 13.9113 10.1128 13.8321 10.2811 13.6639L14.9822 8.96276C15.3187 8.62626 15.3187 8.08192 14.9822 7.73552Z" fill="white"/>
</svg>
