<svg width="21" height="21" viewBox="0 0 21 21" fill="none" xmlns="http://www.w3.org/2000/svg">
<path d="M14.5434 0.903748C17.8985 0.903748 20.1451 3.25926 20.1451 6.76283V14.8497C20.1451 18.3424 17.8985 20.6979 14.5434 20.6979H5.9626C2.60749 20.6979 0.350952 18.3424 0.350952 14.8497V6.76283C0.350952 3.25926 2.60749 0.903748 5.9626 0.903748H14.5434ZM14.385 7.83171C14.0485 7.49521 13.4943 7.49521 13.1578 7.83171L9.07029 11.9192L7.3383 10.1872C7.0018 9.85072 6.44756 9.85072 6.11106 10.1872C5.77456 10.5237 5.77456 11.0681 6.11106 11.4145L8.46657 13.7601C8.63482 13.9283 8.85256 14.0075 9.07029 14.0075C9.29793 14.0075 9.51566 13.9283 9.68391 13.7601L14.385 9.05895C14.7215 8.72245 14.7215 8.17811 14.385 7.83171Z" fill="white"/>
</svg>
