<svg width="21" height="21" viewBox="0 0 21 21" fill="none" xmlns="http://www.w3.org/2000/svg">
<path d="M14.7377 0.807556C18.0928 0.807556 20.3395 3.16306 20.3395 6.66664V14.7536C20.3395 18.2462 18.0928 20.6017 14.7377 20.6017H6.15694C2.80183 20.6017 0.545288 18.2462 0.545288 14.7536V6.66664C0.545288 3.16306 2.80183 0.807556 6.15694 0.807556H14.7377ZM14.5794 7.73552C14.2429 7.39902 13.6886 7.39902 13.3521 7.73552L9.26463 11.823L7.53264 10.091C7.19614 9.75453 6.6419 9.75453 6.3054 10.091C5.9689 10.4275 5.9689 10.9719 6.3054 11.3183L8.66091 13.6639C8.82916 13.8321 9.04689 13.9113 9.26463 13.9113C9.49226 13.9113 9.71 13.8321 9.87825 13.6639L14.5794 8.96276C14.9159 8.62626 14.9159 8.08192 14.5794 7.73552Z" fill="white"/>
</svg>
