<svg width="21" height="20" viewBox="0 0 21 20" fill="none" xmlns="http://www.w3.org/2000/svg">
<path d="M15.1406 0.205017C18.4957 0.205017 20.7423 2.56053 20.7423 6.0641V14.151C20.7423 17.6437 18.4957 19.9992 15.1406 19.9992H6.55977C3.20466 19.9992 0.94812 17.6437 0.94812 14.151V6.0641C0.94812 2.56053 3.20466 0.205017 6.55977 0.205017H15.1406ZM14.9822 7.13298C14.6457 6.79648 14.0915 6.79648 13.755 7.13298L9.66746 11.2205L7.93547 9.48849C7.59897 9.15199 7.04473 9.15199 6.70823 9.48849C6.37173 9.82499 6.37173 10.3693 6.70823 10.7157L9.06374 13.0613C9.23199 13.2296 9.44973 13.3088 9.66746 13.3088C9.89509 13.3088 10.1128 13.2296 10.2811 13.0613L14.9822 8.36022C15.3187 8.02372 15.3187 7.47938 14.9822 7.13298Z" fill="white"/>
</svg>
