<svg width="21" height="20" viewBox="0 0 21 20" fill="none" xmlns="http://www.w3.org/2000/svg">
<path d="M14.5434 0.205017C17.8985 0.205017 20.1451 2.56053 20.1451 6.0641V14.151C20.1451 17.6437 17.8985 19.9992 14.5434 19.9992H5.9626C2.60749 19.9992 0.350952 17.6437 0.350952 14.151V6.0641C0.350952 2.56053 2.60749 0.205017 5.9626 0.205017H14.5434ZM14.385 7.13298C14.0485 6.79648 13.4943 6.79648 13.1578 7.13298L9.07029 11.2205L7.3383 9.48849C7.0018 9.15199 6.44756 9.15199 6.11106 9.48849C5.77456 9.82499 5.77456 10.3693 6.11106 10.7157L8.46657 13.0613C8.63482 13.2296 8.85256 13.3088 9.07029 13.3088C9.29793 13.3088 9.51566 13.2296 9.68391 13.0613L14.385 8.36022C14.7215 8.02372 14.7215 7.47938 14.385 7.13298Z" fill="white"/>
</svg>
