<svg width="21" height="20" viewBox="0 0 21 20" fill="none" xmlns="http://www.w3.org/2000/svg">
<path d="M14.5434 3.05176e-05C17.8985 3.05176e-05 20.1451 2.35554 20.1451 5.85911V13.946C20.1451 17.4387 17.8985 19.7942 14.5434 19.7942H5.9626C2.60749 19.7942 0.350952 17.4387 0.350952 13.946V5.85911C0.350952 2.35554 2.60749 3.05176e-05 5.9626 3.05176e-05H14.5434ZM14.385 6.928C14.0485 6.5915 13.4943 6.5915 13.1578 6.928L9.07029 11.0155L7.3383 9.28351C7.0018 8.947 6.44756 8.947 6.11106 9.28351C5.77456 9.62001 5.77456 10.1643 6.11106 10.5107L8.46657 12.8564C8.63482 13.0246 8.85256 13.1038 9.07029 13.1038C9.29793 13.1038 9.51566 13.0246 9.68391 12.8564L14.385 8.15524C14.7215 7.81874 14.7215 7.2744 14.385 6.928Z" fill="white"/>
</svg>
