<svg width="21" height="21" viewBox="0 0 21 21" fill="none" xmlns="http://www.w3.org/2000/svg">
<path d="M14.7377 0.506287C18.0928 0.506287 20.3395 2.8618 20.3395 6.36537V14.4523C20.3395 17.945 18.0928 20.3005 14.7377 20.3005H6.15694C2.80183 20.3005 0.545288 17.945 0.545288 14.4523V6.36537C0.545288 2.8618 2.80183 0.506287 6.15694 0.506287H14.7377ZM14.5794 7.43425C14.2429 7.09775 13.6886 7.09775 13.3521 7.43425L9.26463 11.5218L7.53264 9.78976C7.19614 9.45326 6.6419 9.45326 6.3054 9.78976C5.9689 10.1263 5.9689 10.6706 6.3054 11.017L8.66091 13.3626C8.82916 13.5309 9.04689 13.61 9.26463 13.61C9.49226 13.61 9.71 13.5309 9.87825 13.3626L14.5794 8.66149C14.9159 8.32499 14.9159 7.78065 14.5794 7.43425Z" fill="white"/>
</svg>
