<svg width="21" height="21" viewBox="0 0 21 21" fill="none" xmlns="http://www.w3.org/2000/svg">
<path d="M15.1406 0.30127C18.4957 0.30127 20.7423 2.65678 20.7423 6.16035V14.2473C20.7423 17.74 18.4957 20.0955 15.1406 20.0955H6.55977C3.20466 20.0955 0.94812 17.74 0.94812 14.2473V6.16035C0.94812 2.65678 3.20466 0.30127 6.55977 0.30127H15.1406ZM14.9822 7.22924C14.6457 6.89274 14.0915 6.89274 13.755 7.22924L9.66746 11.3167L7.93547 9.58474C7.59897 9.24824 7.04473 9.24824 6.70823 9.58474C6.37173 9.92125 6.37173 10.4656 6.70823 10.812L9.06374 13.1576C9.23199 13.3258 9.44973 13.405 9.66746 13.405C9.89509 13.405 10.1128 13.3258 10.2811 13.1576L14.9822 8.45648C15.3187 8.11997 15.3187 7.57563 14.9822 7.22924Z" fill="white"/>
</svg>
