<svg width="21" height="20" viewBox="0 0 21 20" fill="none" xmlns="http://www.w3.org/2000/svg">
<path d="M14.7377 0.205017C18.0928 0.205017 20.3395 2.56053 20.3395 6.0641V14.151C20.3395 17.6437 18.0928 19.9992 14.7377 19.9992H6.15694C2.80183 19.9992 0.545288 17.6437 0.545288 14.151V6.0641C0.545288 2.56053 2.80183 0.205017 6.15694 0.205017H14.7377ZM14.5794 7.13298C14.2429 6.79648 13.6886 6.79648 13.3521 7.13298L9.26463 11.2205L7.53264 9.48849C7.19614 9.15199 6.6419 9.15199 6.3054 9.48849C5.9689 9.82499 5.9689 10.3693 6.3054 10.7157L8.66091 13.0613C8.82916 13.2296 9.04689 13.3088 9.26463 13.3088C9.49226 13.3088 9.71 13.2296 9.87825 13.0613L14.5794 8.36022C14.9159 8.02372 14.9159 7.47938 14.5794 7.13298Z" fill="white"/>
</svg>
