<svg width="21" height="21" viewBox="0 0 21 21" fill="none" xmlns="http://www.w3.org/2000/svg">
<path d="M14.7377 0.602509C18.0928 0.602509 20.3395 2.95802 20.3395 6.46159V14.5485C20.3395 18.0412 18.0928 20.3967 14.7377 20.3967H6.15694C2.80183 20.3967 0.545288 18.0412 0.545288 14.5485V6.46159C0.545288 2.95802 2.80183 0.602509 6.15694 0.602509H14.7377ZM14.5794 7.53048C14.2429 7.19397 13.6886 7.19397 13.3521 7.53048L9.26463 11.618L7.53264 9.88598C7.19614 9.54948 6.6419 9.54948 6.3054 9.88598C5.9689 10.2225 5.9689 10.7668 6.3054 11.1132L8.66091 13.4588C8.82916 13.6271 9.04689 13.7063 9.26463 13.7063C9.49226 13.7063 9.71 13.6271 9.87825 13.4588L14.5794 8.75771C14.9159 8.42121 14.9159 7.87687 14.5794 7.53048Z" fill="white"/>
</svg>
