<svg width="21" height="21" viewBox="0 0 21 21" fill="none" xmlns="http://www.w3.org/2000/svg">
<path d="M14.5434 0.30127C17.8985 0.30127 20.1451 2.65678 20.1451 6.16035V14.2473C20.1451 17.74 17.8985 20.0955 14.5434 20.0955H5.9626C2.60749 20.0955 0.350952 17.74 0.350952 14.2473V6.16035C0.350952 2.65678 2.60749 0.30127 5.9626 0.30127H14.5434ZM14.385 7.22924C14.0485 6.89274 13.4943 6.89274 13.1578 7.22924L9.07029 11.3167L7.3383 9.58474C7.0018 9.24824 6.44756 9.24824 6.11106 9.58474C5.77456 9.92125 5.77456 10.4656 6.11106 10.812L8.46657 13.1576C8.63482 13.3258 8.85256 13.405 9.07029 13.405C9.29793 13.405 9.51566 13.3258 9.68391 13.1576L14.385 8.45648C14.7215 8.11997 14.7215 7.57563 14.385 7.22924Z" fill="white"/>
</svg>
