<svg width="21" height="21" viewBox="0 0 21 21" fill="none" xmlns="http://www.w3.org/2000/svg">
<path d="M14.7377 0.30127C18.0928 0.30127 20.3395 2.65678 20.3395 6.16035V14.2473C20.3395 17.74 18.0928 20.0955 14.7377 20.0955H6.15694C2.80183 20.0955 0.545288 17.74 0.545288 14.2473V6.16035C0.545288 2.65678 2.80183 0.30127 6.15694 0.30127H14.7377ZM14.5794 7.22924C14.2429 6.89274 13.6886 6.89274 13.3521 7.22924L9.26463 11.3167L7.53264 9.58474C7.19614 9.24824 6.6419 9.24824 6.3054 9.58474C5.9689 9.92125 5.9689 10.4656 6.3054 10.812L8.66091 13.1576C8.82916 13.3258 9.04689 13.405 9.26463 13.405C9.49226 13.405 9.71 13.3258 9.87825 13.1576L14.5794 8.45648C14.9159 8.11997 14.9159 7.57563 14.5794 7.22924Z" fill="white"/>
</svg>
