<svg width="21" height="21" viewBox="0 0 21 21" fill="none" xmlns="http://www.w3.org/2000/svg">
<path d="M15.1406 0.602509C18.4957 0.602509 20.7423 2.95802 20.7423 6.46159V14.5485C20.7423 18.0412 18.4957 20.3967 15.1406 20.3967H6.55977C3.20466 20.3967 0.94812 18.0412 0.94812 14.5485V6.46159C0.94812 2.95802 3.20466 0.602509 6.55977 0.602509H15.1406ZM14.9822 7.53048C14.6457 7.19397 14.0915 7.19397 13.755 7.53048L9.66746 11.618L7.93547 9.88598C7.59897 9.54948 7.04473 9.54948 6.70823 9.88598C6.37173 10.2225 6.37173 10.7668 6.70823 11.1132L9.06374 13.4588C9.23199 13.6271 9.44973 13.7063 9.66746 13.7063C9.89509 13.7063 10.1128 13.6271 10.2811 13.4588L14.9822 8.75771C15.3187 8.42121 15.3187 7.87687 14.9822 7.53048Z" fill="white"/>
</svg>
