<svg width="21" height="21" viewBox="0 0 21 21" fill="none" xmlns="http://www.w3.org/2000/svg">
<path d="M14.5434 0.602509C17.8985 0.602509 20.1451 2.95802 20.1451 6.46159V14.5485C20.1451 18.0412 17.8985 20.3967 14.5434 20.3967H5.9626C2.60749 20.3967 0.350952 18.0412 0.350952 14.5485V6.46159C0.350952 2.95802 2.60749 0.602509 5.9626 0.602509H14.5434ZM14.385 7.53048C14.0485 7.19397 13.4943 7.19397 13.1578 7.53048L9.07029 11.618L7.3383 9.88598C7.0018 9.54948 6.44756 9.54948 6.11106 9.88598C5.77456 10.2225 5.77456 10.7668 6.11106 11.1132L8.46657 13.4588C8.63482 13.6271 8.85256 13.7063 9.07029 13.7063C9.29793 13.7063 9.51566 13.6271 9.68391 13.4588L14.385 8.75771C14.7215 8.42121 14.7215 7.87687 14.385 7.53048Z" fill="white"/>
</svg>
