<svg width="21" height="21" viewBox="0 0 21 21" fill="none" xmlns="http://www.w3.org/2000/svg">
<path d="M15.1406 0.903748C18.4957 0.903748 20.7423 3.25926 20.7423 6.76283V14.8497C20.7423 18.3424 18.4957 20.6979 15.1406 20.6979H6.55977C3.20466 20.6979 0.94812 18.3424 0.94812 14.8497V6.76283C0.94812 3.25926 3.20466 0.903748 6.55977 0.903748H15.1406ZM14.9822 7.83171C14.6457 7.49521 14.0915 7.49521 13.755 7.83171L9.66746 11.9192L7.93547 10.1872C7.59897 9.85072 7.04473 9.85072 6.70823 10.1872C6.37173 10.5237 6.37173 11.0681 6.70823 11.4145L9.06374 13.7601C9.23199 13.9283 9.44973 14.0075 9.66746 14.0075C9.89509 14.0075 10.1128 13.9283 10.2811 13.7601L14.9822 9.05895C15.3187 8.72245 15.3187 8.17811 14.9822 7.83171Z" fill="white"/>
</svg>
