<svg width="21" height="20" viewBox="0 0 21 20" fill="none" xmlns="http://www.w3.org/2000/svg">
<path d="M15.1406 3.05176e-05C18.4957 3.05176e-05 20.7423 2.35554 20.7423 5.85911V13.946C20.7423 17.4387 18.4957 19.7942 15.1406 19.7942H6.55977C3.20466 19.7942 0.94812 17.4387 0.94812 13.946V5.85911C0.94812 2.35554 3.20466 3.05176e-05 6.55977 3.05176e-05H15.1406ZM14.9822 6.928C14.6457 6.5915 14.0915 6.5915 13.755 6.928L9.66746 11.0155L7.93547 9.28351C7.59897 8.947 7.04473 8.947 6.70823 9.28351C6.37173 9.62001 6.37173 10.1643 6.70823 10.5107L9.06374 12.8564C9.23199 13.0246 9.44973 13.1038 9.66746 13.1038C9.89509 13.1038 10.1128 13.0246 10.2811 12.8564L14.9822 8.15524C15.3187 7.81874 15.3187 7.2744 14.9822 6.928Z" fill="white"/>
</svg>
