<svg width="21" height="21" viewBox="0 0 21 21" fill="none" xmlns="http://www.w3.org/2000/svg">
<path d="M15.1406 0.506287C18.4957 0.506287 20.7423 2.8618 20.7423 6.36537V14.4523C20.7423 17.945 18.4957 20.3005 15.1406 20.3005H6.55977C3.20466 20.3005 0.94812 17.945 0.94812 14.4523V6.36537C0.94812 2.8618 3.20466 0.506287 6.55977 0.506287H15.1406ZM14.9822 7.43425C14.6457 7.09775 14.0915 7.09775 13.755 7.43425L9.66746 11.5218L7.93547 9.78976C7.59897 9.45326 7.04473 9.45326 6.70823 9.78976C6.37173 10.1263 6.37173 10.6706 6.70823 11.017L9.06374 13.3626C9.23199 13.5309 9.44973 13.61 9.66746 13.61C9.89509 13.61 10.1128 13.5309 10.2811 13.3626L14.9822 8.66149C15.3187 8.32499 15.3187 7.78065 14.9822 7.43425Z" fill="white"/>
</svg>
