<svg width="21" height="20" viewBox="0 0 21 20" fill="none" xmlns="http://www.w3.org/2000/svg">
<path d="M14.7377 3.05176e-05C18.0928 3.05176e-05 20.3395 2.35554 20.3395 5.85911V13.946C20.3395 17.4387 18.0928 19.7942 14.7377 19.7942H6.15694C2.80183 19.7942 0.545288 17.4387 0.545288 13.946V5.85911C0.545288 2.35554 2.80183 3.05176e-05 6.15694 3.05176e-05H14.7377ZM14.5794 6.928C14.2429 6.5915 13.6886 6.5915 13.3521 6.928L9.26463 11.0155L7.53264 9.28351C7.19614 8.947 6.6419 8.947 6.3054 9.28351C5.9689 9.62001 5.9689 10.1643 6.3054 10.5107L8.66091 12.8564C8.82916 13.0246 9.04689 13.1038 9.26463 13.1038C9.49226 13.1038 9.71 13.0246 9.87825 12.8564L14.5794 8.15524C14.9159 7.81874 14.9159 7.2744 14.5794 6.928Z" fill="white"/>
</svg>
